<?xml version="1.0" standalone="no"?>
<!DOCTYPE svg PUBLIC "-//W3C//DTD SVG 1.1//EN" "http://www.w3.org/Graphics/SVG/1.1/DTD/svg11.dtd" >
<svg xmlns="http://www.w3.org/2000/svg">
<metadata>Generated by IcoMoon</metadata>
<defs>
<font id="icomoon" horiz-adv-x="1024">
<font-face units-per-em="1024" ascent="960" descent="-64" />
<missing-glyph horiz-adv-x="1024" />
<glyph unicode="&#x20;" horiz-adv-x="512" d="" />
<glyph unicode="&#xe900;" glyph-name="airplane" d="M768 320.065l-182.848 182.848 438.848 329.152-128 128-548.544-219.456-172.672 172.736c-49.792 49.792-119.296 61.696-154.496 26.496s-23.296-104.704 26.496-154.496l172.672-172.672-219.456-548.609 128-128 329.216 438.849 182.848-182.849v-256h128l64 192 192 64v128.001h-256.064z" />
<glyph unicode="&#xe901;" glyph-name="angle_down" d="M17.187 640.134l68.031 76.535 426.787-379.364 426.783 379.364 68.029-76.535-494.812-439.835-494.818 439.835z" />
<glyph unicode="&#xe902;" glyph-name="angle_down_lg" d="M71.313 554.89l113.385 127.558 327.307-290.938 327.309 290.938 113.382-127.558-440.691-391.729-440.692 391.729z" />
<glyph unicode="&#xe903;" glyph-name="angle_down_sm" d="M85.484 570.831l85.039 95.668 341.481-303.539 341.481 303.539 85.037-95.668-426.518-379.126-426.52 379.126z" />
<glyph unicode="&#xe904;" glyph-name="angle_left" d="M650.773 860.344l63.778-56.692-316.136-355.656 316.136-355.652-63.778-56.691-366.53 412.343 366.53 412.348z" />
<glyph unicode="&#xe905;" glyph-name="angle_left_lg" d="M618.889 888.693l127.561-113.385-290.94-327.308 290.94-327.309-127.561-113.382-391.725 440.691 391.725 440.693z" />
<glyph unicode="&#xe906;" glyph-name="angle_right" d="M373.227 35.657l-63.779 56.691 316.135 355.657-316.135 355.652 63.779 56.692 366.528-412.344-366.528-412.348z" />
<glyph unicode="&#xe907;" glyph-name="angle_right_lg" d="M405.11 7.309l-127.558 113.382 290.938 327.309-290.938 327.307 127.558 113.385 391.729-440.692-391.729-440.691z" />
<glyph unicode="&#xe908;" glyph-name="angle_right_xs" d="M345.46-46.812l-76.535 68.030 379.364 426.785-379.364 426.784 76.535 68.031 439.836-494.815-439.836-494.815z" />
<glyph unicode="&#xe909;" glyph-name="angle_up" d="M924.343 309.222l-56.691-63.778-355.657 316.135-355.652-316.135-56.692 63.778 412.344 366.529 412.348-366.529z" />
<glyph unicode="&#xe90a;" glyph-name="angle_up_lg" d="M952.687 341.111l-113.382-127.561-327.309 290.94-327.308-290.94-113.385 127.561 440.693 391.725 440.691-391.725z" />
<glyph unicode="&#xe90b;" glyph-name="angle_up_sm" d="M938.515 325.169l-85.037-95.671-341.482 303.541-341.48-303.541-85.039 95.671 426.519 379.128 426.519-379.128z" />
<glyph unicode="&#xe90c;" glyph-name="car" d="M1023.989 400.926c0 20.142-4.551 39.38-12.76 56.98-0.848 4.474-1.815 8.942-3.026 13.474l-88.946 220.438-0.603 1.983c-31.124 92.665-75.406 178.429-187.688 178.429h-429.314c-115.053 0-155.709-87.889-187.513-177.914l-93.041-220.975c-13.451-21.551-21.098-46.203-21.098-72.414v-68.592c0-10.604 1.254-20.981 3.637-30.97-2.317-6.042-3.637-12.544-3.637-19.405v-204.009c0-29.918 24.252-54.175 54.169-54.175h112.409c29.9 0 54.153 24.257 54.153 54.175v102.019h588.946v-102.019c0-29.918 24.257-54.175 54.175-54.175h105.973c29.929 0 54.175 24.257 54.175 54.175v204.032c0 6.832-1.331 13.369-3.635 19.388 2.378 10.007 3.635 20.372 3.635 30.97v68.584l-0.011 0.002zM180.152 672.183c35.418 99.926 63.9 130.43 121.5 130.43h429.285c57.179 0 89.014-34.022 121.367-130l64.91-131.537c-21.197 7.848-44.516 12.204-69.023 12.204h-672.397c-22.063 0-43.147-3.548-62.601-9.969l66.958 128.873zM235.91 306.284h-118.604c-21.354 0-38.673 17.334-38.673 38.684 0 21.356 17.319 38.679 38.673 38.679h118.604c21.363 0 38.682-17.323 38.682-38.679 0-21.35-17.33-38.684-38.682-38.684zM654.882 314.027h-275.875c-13.526 0-24.486 10.968-24.486 24.491 0 13.54 10.96 24.502 24.486 24.502h275.875c13.545 0 24.502-10.962 24.502-24.502 0-13.522-10.957-24.491-24.502-24.491zM903.691 306.284h-118.602c-21.373 0-38.679 17.334-38.679 38.684 0 21.356 17.323 38.679 38.679 38.679h118.602c21.373 0 38.696-17.323 38.696-38.679 0-21.35-17.323-38.684-38.696-38.684z" />
<glyph unicode="&#xe90d;" glyph-name="check" d="M904.841 609.832l-478.17-478.171-222.171 222.17 60.34 60.343 161.831-161.83 417.83 417.828 60.339-60.34z" />
<glyph unicode="&#xe90e;" glyph-name="close" d="M515.034 505.306l241.357 241.361 60.339-60.34-241.357-241.361 241.357-241.357-60.339-60.339-241.357 241.357-241.361-241.357-60.34 60.339 241.361 241.357-241.361 241.361 60.34 60.34 241.361-241.361z" />
<glyph unicode="&#xe90f;" glyph-name="filter" d="M682.667 746.667c0 23.564-19.102 42.667-42.667 42.667s-42.667-19.103-42.667-42.667c0-23.564 19.102-42.667 42.667-42.667s42.667 19.103 42.667 42.667zM760.717 704c-17.57-49.715-64.986-85.333-120.717-85.333s-103.147 35.619-120.717 85.333h-433.95v85.333h433.95c17.57 49.715 64.986 85.333 120.717 85.333s103.147-35.619 120.717-85.333h177.95v-85.333h-177.95zM341.333 576c55.732 0 103.147-35.619 120.717-85.333h476.617v-85.333h-476.617c-17.57-49.715-64.985-85.333-120.717-85.333s-103.145 35.618-120.716 85.333h-135.284v85.333h135.284c17.571 49.715 64.984 85.333 120.716 85.333zM85.333 106.667h647.283c17.57-49.715 64.986-85.333 120.717-85.333 70.694 0 128 57.306 128 128s-57.306 128-128 128c-55.731 0-103.147-35.618-120.717-85.333h-647.283v-85.333zM341.333 405.333c23.564 0 42.667 19.102 42.667 42.667s-19.103 42.667-42.667 42.667c-23.564 0-42.667-19.102-42.667-42.667s19.103-42.667 42.667-42.667zM896 149.333c0-23.565-19.102-42.667-42.667-42.667s-42.667 19.102-42.667 42.667c0 23.565 19.102 42.667 42.667 42.667s42.667-19.102 42.667-42.667z" />
<glyph unicode="&#xe910;" glyph-name="search" d="M665.6 512c0 120.177-97.423 217.6-217.6 217.6s-217.6-97.423-217.6-217.6c0-120.177 97.423-217.6 217.6-217.6s217.6 97.423 217.6 217.6zM627.574 247.096c-51.203-34.775-113.014-55.096-179.574-55.096-176.732 0-320 143.268-320 320s143.268 320 320 320c176.732 0 320-143.268 320-320 0-73.203-24.579-140.662-65.935-194.58l223.68-223.68-72.41-72.407-225.761 225.764z" />
<glyph unicode="&#xe911;" glyph-name="map" d="M384 789.333l256 170.667 384-170.667v-853.333l-384 170.667-256-170.667-384 170.667v853.333l384-170.667zM597.333 828.998l-170.667-113.777v-648.216l170.667 113.775v648.219zM682.667 847.655v-666.569l256-113.779v666.571l-256 113.778zM85.333 828.692v-666.572l256-113.775v666.569l-256 113.778z" />
<glyph unicode="&#xe912;" d="M622.763 131.029c-39.177-51.827-77.798-102.921-110.763-152.363-32.964 49.442-71.586 100.535-110.764 152.363-112.963 149.431-230.569 305.003-230.569 444.971 0 188.513 152.82 341.333 341.333 341.333s341.333-152.82 341.333-341.333c0-139.968-117.606-295.539-230.571-444.971zM512 490.667c47.13 0 85.333 38.204 85.333 85.333 0 47.128-38.204 85.333-85.333 85.333s-85.333-38.205-85.333-85.333c0-47.13 38.204-85.333 85.333-85.333z" />
<glyph unicode="&#xe913;" d="M695.407 302.665c-33.020-48.469-69.85-97.186-106.94-146.253l-3.17-4.194c-24.849-32.875-49.805-65.946-73.297-98.709-23.492 32.764-48.448 65.835-73.297 98.709l-3.17 4.194c-37.091 49.067-73.918 97.783-106.938 146.253-69.15 101.5-115.261 193.267-115.261 273.335 0 164.949 133.718 298.667 298.667 298.667s298.667-133.718 298.667-298.667c0-80.068-46.11-171.836-115.26-273.335zM537.98 16.439c26.53 37.53 55.501 75.853 84.783 114.59 112.964 149.431 230.571 305.003 230.571 444.971 0 188.513-152.819 341.333-341.333 341.333s-341.333-152.82-341.333-341.333c0-139.968 117.606-295.539 230.569-444.971 29.284-38.737 58.255-77.060 84.785-114.59 8.964-12.689 17.651-25.284 25.98-37.773 8.329 12.489 17.015 25.084 25.98 37.773z" />
<glyph unicode="&#xe914;" glyph-name="marker_lg" d="M622.763 131.029c-39.177-51.827-77.798-102.921-110.763-152.363-32.964 49.442-71.586 100.535-110.764 152.363-112.963 149.431-230.569 305.003-230.569 444.971 0 188.513 152.82 341.333 341.333 341.333s341.333-152.82 341.333-341.333c0-139.968-117.606-295.539-230.571-444.971zM512 448c70.694 0 128 57.306 128 128 0 70.692-57.306 128-128 128s-128-57.308-128-128c0-70.694 57.306-128 128-128z" />
<glyph unicode="&#xe915;" glyph-name="menu" d="M853.335 618.665h-682.666v102.401h682.666v-102.401zM853.335 405.335h-682.666v102.4h682.666v-102.4zM170.669 192h682.666v102.4h-682.666v-102.4z" />
<glyph unicode="&#xe916;" glyph-name="minus" d="M170.667 490.667h682.667v-85.333h-682.667v85.333z" />
<glyph unicode="&#xe917;" glyph-name="phone" d="M895.974 257.003v-115.614c0.047-10.731-2.159-21.355-6.464-31.189-4.309-9.835-10.628-18.662-18.556-25.92-7.923-7.253-17.28-12.779-27.465-16.218-10.189-3.439-20.983-4.715-31.693-3.75-118.827 12.885-232.964 53.41-333.248 118.315-93.3 59.17-172.401 138.112-231.689 231.228-65.26 100.54-105.872 215.007-118.547 334.129-0.965 10.657 0.304 21.398 3.726 31.539s8.923 19.459 16.151 27.362c7.229 7.903 16.026 14.217 25.834 18.541s20.41 6.562 31.132 6.572h115.844c18.74 0.184 36.908-6.439 51.117-18.634s23.49-29.132 26.113-47.651c4.89-37 13.958-73.328 27.031-108.293 5.194-13.794 6.32-28.785 3.24-43.197s-10.234-27.641-20.617-38.119l-49.041-48.943c54.97-96.482 135.014-176.371 231.688-231.232l49.041 48.943c10.5 10.364 23.753 17.502 38.195 20.578 14.438 3.072 29.461 1.95 43.281-3.234 35.034-13.047 71.437-22.097 108.51-26.978 18.756-2.641 35.887-12.070 48.132-26.496 12.25-14.421 18.756-32.836 18.283-51.738z" />
<glyph unicode="&#xe918;" glyph-name="price" d="M512 960l341.333-213.333v-810.667h-682.667v810.667l341.333 213.333zM597.333 661.333c0 47.128-38.204 85.333-85.333 85.333s-85.333-38.205-85.333-85.333c0-47.128 38.204-85.333 85.333-85.333s85.333 38.205 85.333 85.333zM490.667 533.333v-64.047c-12.988-0.094-25.152-0.371-36.22-1.178-16.832-1.225-33.018-3.78-46.998-9.899-14.7-6.43-26.663-16.683-34.47-32.047-7.452-14.673-10.313-32.439-10.313-52.83s2.861-38.157 10.313-52.83c7.806-15.364 19.77-25.617 34.47-32.047 13.98-6.118 30.166-8.674 46.998-9.899 11.068-0.806 23.232-1.084 36.22-1.178v-106.662c-12.386 0.090-23.33 0.346-33.114 1.058-15.168 1.105-25.647 3.217-33.002 6.434-6.633 2.901-10.67 6.652-13.53 12.284-3.215 6.327-5.687 16.563-5.687 33.506h-42.667c0-20.39 2.861-38.157 10.313-52.83 7.806-15.364 19.77-25.617 34.47-32.047 13.98-6.118 30.166-8.674 46.998-9.899 11.068-0.806 23.232-1.084 36.22-1.178v-64.047h42.667v64.047c12.988 0.094 25.152 0.371 36.22 1.178 16.832 1.225 33.020 3.78 46.997 9.899 14.699 6.43 26.662 16.683 34.47 32.047 7.45 14.673 10.313 32.439 10.313 52.83s-2.863 38.157-10.313 52.83c-7.808 15.364-19.772 25.617-34.47 32.047-13.978 6.118-30.165 8.674-46.997 9.899-11.068 0.806-23.232 1.084-36.22 1.178v106.662c12.386-0.090 23.33-0.346 33.114-1.058 15.168-1.105 25.647-3.217 33.003-6.434 6.635-2.901 10.671-6.652 13.53-12.284 3.217-6.327 5.687-16.563 5.687-33.506h42.667c0 20.39-2.863 38.157-10.313 52.83-7.808 15.364-19.772 25.617-34.47 32.047-13.978 6.118-30.165 8.674-46.997 9.899-11.068 0.806-23.232 1.084-36.22 1.178v64.047h-42.667zM490.667 426.615c-12.386-0.090-23.33-0.346-33.114-1.058-15.168-1.105-25.647-3.217-33.002-6.434-6.633-2.901-10.67-6.652-13.53-12.284-3.215-6.327-5.687-16.563-5.687-33.506s2.473-27.179 5.687-33.506c2.86-5.632 6.897-9.382 13.53-12.284 7.355-3.217 17.834-5.329 33.002-6.434 9.783-0.713 20.727-0.969 33.114-1.058v106.564zM533.333 170.718c12.386 0.090 23.33 0.346 33.114 1.058 15.168 1.105 25.647 3.217 33.003 6.434 6.635 2.901 10.671 6.652 13.53 12.284 3.217 6.327 5.687 16.563 5.687 33.506s-2.47 27.179-5.687 33.506c-2.859 5.632-6.895 9.382-13.53 12.284-7.356 3.217-17.835 5.329-33.003 6.434-9.783 0.713-20.727 0.969-33.114 1.058v-106.564z" />
<glyph unicode="&#xe919;" glyph-name="Mail" d="M170.667 789.333h682.667c47.13 0 85.333-38.205 85.333-85.333v-512c0-47.13-38.204-85.333-85.333-85.333h-682.667c-47.128 0-85.333 38.204-85.333 85.333v512c0 47.128 38.205 85.333 85.333 85.333zM155.587 688.913l240.913-240.913-240.917-240.917 30.17-30.17 240.918 240.917 40.081-40.081c24.99-24.994 65.515-24.994 90.509 0l40.077 40.081 240.917-240.917 30.17 30.17-240.917 240.917 240.917 240.913-30.17 30.17-311.164-311.165c-8.333-8.329-21.841-8.329-30.17 0l-311.165 311.165-30.17-30.17z" />
<glyph unicode="&#xe91a;" glyph-name="union" d="M576 960h-128v-448h-448v-128h448v-448h128v448h448v128h-448v448z" />
<glyph unicode="&#xe91b;" glyph-name="fb" horiz-adv-x="559" d="M372.362 758.307h155.152v186.182h-155.152c-119.777 0-217.212-97.435-217.212-217.212v-93.091h-124.121v-186.181h124.121v-496.486h186.182v496.486h155.15l31.032 186.181h-186.182v93.091c0 16.818 14.212 31.030 31.030 31.030z" />
<glyph unicode="&#xe91c;" glyph-name="insta" d="M512 944.489c-134.876 0-151.716-0.621-204.674-2.979-52.876-2.482-88.871-10.799-120.522-23.087-32.644-12.66-60.364-29.665-87.96-57.262s-44.642-55.276-57.261-87.96c-12.288-31.651-20.646-67.646-23.087-120.522-2.482-52.958-2.979-69.798-2.979-204.675 0-134.879 0.621-151.72 2.979-204.679 2.482-52.834 10.799-88.869 23.087-120.52 12.66-32.6 29.665-60.365 57.261-87.962 27.597-27.555 55.276-44.642 87.96-57.26 31.693-12.246 67.688-20.643 120.522-23.087 52.958-2.481 69.798-2.979 204.674-2.979 134.879 0 151.72 0.619 204.679 2.979 52.834 2.481 88.869 10.84 120.52 23.087 32.6 12.66 60.365 29.705 87.962 57.26 27.555 27.597 44.642 55.235 57.26 87.962 12.246 31.651 20.648 67.686 23.087 120.52 2.481 52.959 2.979 69.8 2.979 204.679 0 134.877-0.619 151.717-2.979 204.675-2.481 52.834-10.84 88.913-23.087 120.522-12.66 32.644-29.705 60.364-57.26 87.96-27.597 27.596-55.235 44.642-87.962 57.262-31.651 12.288-67.686 20.646-120.52 23.087-52.959 2.482-69.8 2.979-204.679 2.979v0zM512 855.121c132.52 0 148.326-0.662 200.662-2.937 48.407-2.276 74.682-10.302 92.141-17.17 23.254-8.979 39.717-19.735 57.176-37.071 17.338-17.377 28.095-33.885 37.073-57.137 6.786-17.46 14.895-43.732 17.087-92.14 2.36-52.379 2.895-68.101 2.895-200.662s-0.619-148.326-3.063-200.662c-2.523-48.407-10.589-74.682-17.417-92.141-9.267-23.249-19.819-39.717-37.194-57.176-17.334-17.338-34.090-28.095-57.097-37.073-17.375-6.782-44.060-14.895-92.467-17.087-52.713-2.355-68.226-2.895-201.034-2.895-132.853 0-148.368 0.619-201.036 3.063-48.449 2.523-75.135 10.589-92.512 17.417-23.541 9.267-39.719 19.819-57.054 37.194-17.419 17.334-28.548 34.090-37.236 57.097-6.827 17.375-14.853 44.060-17.377 92.467-1.862 52.131-2.524 68.226-2.524 200.415 0 132.231 0.662 148.367 2.524 201.119 2.524 48.407 10.55 75.052 17.377 92.429 8.688 23.583 19.818 39.719 37.236 57.137 17.335 17.335 33.513 28.506 57.054 37.154 17.377 6.869 43.484 14.936 91.891 17.419 52.751 1.862 68.266 2.483 201.033 2.483l1.862-1.242zM512 702.949c-140.876 0-254.943-114.191-254.943-254.944 0-140.879 114.191-254.948 254.943-254.948 140.879 0 254.948 114.195 254.948 254.948 0 140.877-114.195 254.944-254.948 254.944v0zM512 282.508c-91.434 0-165.493 74.058-165.493 165.497 0 91.436 74.058 165.494 165.493 165.494 91.439 0 165.497-74.058 165.497-165.494 0-91.439-74.058-165.497-165.497-165.497zM836.622 713.002c0-32.892-26.731-59.578-59.578-59.578-32.894 0-59.578 26.728-59.578 59.578s26.726 59.537 59.578 59.537c32.81 0.041 59.578-26.686 59.578-59.537v0z" />
<glyph unicode="&#xe91d;" glyph-name="arrow-down" d="M512 789.333c23.565 0 42.667-19.103 42.667-42.667v-597.333c0-23.565-19.102-42.667-42.667-42.667s-42.667 19.102-42.667 42.667v597.333c0 23.564 19.102 42.667 42.667 42.667zM183.163 478.17c16.663 16.661 43.677 16.661 60.34 0l268.497-268.497 268.497 268.497c16.661 16.661 43.678 16.661 60.339 0s16.661-43.678 0-60.339l-298.667-298.667c-16.661-16.661-43.678-16.661-60.339 0l-298.667 298.667c-16.662 16.661-16.662 43.678 0 60.339z" />
</font>
</defs>
</svg>
